<svg height="1024" viewBox="0 0 270.93333 270.93333" width="1024" xmlns="http://www.w3.org/2000/svg"><path d="m156.93753 277.56373c-6.07699-.87599-14.40608-3.5853-16.19833-5.26905-1.08782-1.02195-1.16685-1.82451-.30134-3.0602.8331-1.18941 1.97842-1.13287 5.51569.27228 7.78725 3.09343 17.45336 4.08889 23.91587 2.46295 10.72234-2.69767 21.58181-11.81059 29.38729-24.66086 1.38849-2.28587 4.62892-1.75737 4.62892.75495 0 3.98539-9.04521 14.80572-17.94354 21.46497-8.88292 6.6477-19.06348 9.46796-29.00456 8.03496zm-5.62828-24.72239c-2.03756-.5515-4.24494-2.44992-4.24494-3.65078 0-.7676 1.43497-2.21008 2.19854-2.21008.32263 0 1.27469.46916 2.11569 1.04258 1.32796.90546 1.79416 1.00827 3.54405.78161 1.10822-.14354 3.68216-.99067 5.71987-1.88249s4.02796-1.5593 4.42275-1.48326c1.01417.19531 1.797 1.90134 1.29924 2.83142-.62676 1.17111-3.13551 2.61308-6.40452 3.68116-4.0263 1.31553-6.23757 1.54298-8.65068.88984zm-52.804984-.22617c-8.578744-1.29085-14.053364-2.86194-20.820924-5.97514-6.64002-3.05453-11.4763-6.82959-16.4272-12.82259-5.95303-7.20605-9.57519-14.16468-11.81747-22.70289-1.076403-4.09867-1.222331-5.3331-1.262504-10.67919-.05109-6.79574.470434-9.52398 2.789264-14.59218 1.8743-4.09662 2.39306-4.15902 6.83864-.82256 3.84307 2.88428 9.20168 5.82184 12.90555 7.07478 4.02481 1.3615 9.77291 1.94263 30.615558 3.09521 15.24926.84326 20.99863 1.97158 28.54058 5.60111 4.69051 2.25729 7.57061 4.77305 12.97125 11.33029 6.65106 8.07547 7.56436 9.04221 11.00115 11.6449 2.94882 2.23314 3.43063 2.4081 7.93523 2.88129 2.71631.28535 4.23136 1.32335 4.23136 2.89903 0 2.53008-1.84469 3.46677-5.72289 2.90595-5.38379-.77851-5.46779-.7526-9.23356 2.84806-4.82099 4.60959-9.38875 7.73481-15.96638 10.924-6.61825 3.2089-11.30049 4.86199-16.42826 5.80006-4.22146.77228-16.54045 1.13291-20.149394.58987zm13.277274-3.63578c11.11656-1.05415 20.7158-4.48107 29.48751-10.52697 2.90556-2.00267 8.21319-7.14363 8.21319-7.95527 0-.56051-17.67383-.58436-23.77629-.0321-13.37702 1.21061-14.59822 1.26331-18.79793.81113-5.69547-.61322-10.284808-1.9948-16.060538-4.83488-4.86271-2.39112-11.33892-6.91178-12.83115-8.95666-.74919-1.02665-.75548-1.14068-.11671-2.11568.37138-.5668 1.0329-1.03054 1.47003-1.03054.43715 0 2.41337 1.22884 4.3916 2.73076 4.79316 3.63902 8.8031 5.88495 13.51243 7.56813 7.211398 2.57746 13.866338 3.13634 23.193368 1.94783 2.90378-.37001 10.09294-.75257 16.97361-.90321l11.93625-.26134-7.30189-8.3386c-9.32785-10.65222-11.58613-12.44218-18.70737-14.82802-6.82185-2.28553-14.77301-3.24078-33.527708-4.02803-11.93926-.50114-15.22707-.90957-19.93949-2.47693-4.4011-1.46381-6.84715-2.83292-12.0114-6.7231-2.17894-1.64137-4.01743-2.91924-4.08553-2.83974-.0682.0795-.41774 1.05132-.77694 2.15954-1.06151 3.27492-1.5788 8.16281-1.32353 12.50581.75906 12.91425 5.96707 24.20908 15.64995 33.94087 5.34977 5.37676 10.43251 8.36316 19.02351 11.17735 9.00641 2.95028 16.575238 3.84694 25.404978 3.00963zm85.25329-16.28268c-8.44367-1.09095-14.93755-3.07851-23.17181-7.09215-7.39793-3.60598-12.34511-6.92082-16.42409-11.00488-5.06764-5.07396-10.17452-13.08353-10.65562-16.71213-.30468-2.29796.79004-3.00841 6.32582-4.10542 8.98251-1.78002 16.96905-5.04846 22.76884-9.31802 1.5515-1.14214 10.98142-10.27273 20.95538-20.2902 18.96204-19.04474 22.29139-21.9794 29.82636-26.29047 4.0913-2.34079 8.45371-4.17516 13.01203-5.47148 2.96298-.84265 3.84389-.88236 19.62474-.88489 14.7616-.002 16.86611-.0836 19.74641-.76118 4.2203-.99298 4.94292-1.39332 8.38325-4.64458 3.24196-3.06381 4.18009-3.66413 5.72585-3.66413 1.45149 0 3.42152 2.01405 3.41877 3.49515-.003 1.65129-.95691 2.87417-5.11473 6.55737-2.03852 1.80584-3.79836 3.59229-3.91076 3.96993-.11243.37765-.19457 4.76688-.18265 9.75386.0178 7.42629-.12747 9.90592-.80279 13.70159-3.5399 19.89672-11.36107 35.37482-24.64393 48.77032-6.64545 6.70182-12.16857 10.86939-20.48583 15.45799-7.89959 4.35816-13.41361 6.56497-19.90637 7.96692-4.90677 1.05948-18.27871 1.36875-24.48887.5664zm23.37331-4.86142c14.75309-3.23668 32.05374-14.2709 43.14773-27.51925 10.24581-12.23548 17.03958-27.78111 18.88014-43.20189.64135-5.3735.97594-13.34287.66476-15.83354l-.28362-2.26993-1.28265.23678c-4.3324.79982-11.26915 4.20576-18.88665 9.27332-9.3536 6.22252-20.2017 16.98908-31.91268 31.67278-6.34629 7.95721-10.63661 11.92345-16.37186 15.13513-5.24008 2.93441-12.45111 5.2466-19.13766 6.1364-3.1458.41863-3.55163.39527-4.25935-.24521-1.05505-.9548-.99579-2.44805.1244-3.13702.49869-.30669 2.89288-.86947 5.32043-1.25059 5.40558-.84871 9.88781-2.21705 14.07938-4.2982 6.4705-3.21264 10.31961-6.6993 17.93431-16.24544 8.47718-10.62738 18.99711-21.55616 25.996-27.00629 5.23807-4.07894 10.52964-7.45417 16.36075-10.4357 2.99219-1.52994 5.49508-2.83044 5.56198-2.89001.067-.0596-6.82419-.0684-15.31355-.0197-12.23069.0702-16.06265.22033-18.45758.72311-6.41613 1.34698-11.10669 3.43123-17.77566 7.89861-6.08966 4.07932-9.60666 7.20982-19.28047 17.16166-16.2231 16.68935-24.39742 24.67745-27.42196 26.79725-6.01999 4.2192-11.58913 6.36416-21.66061 8.34259-4.14763.81478-5.74258 1.28629-5.74258 1.69771 0 1.41101 2.74037 5.90474 5.28471 8.66603 10.92064 11.85172 25.70574 19.11776 43.47684 21.3664 3.34437.42318 17.99036-.10457 20.95538-.75501z" fill="#fff" stroke-width=".402987" transform="translate(-36.90514 -64.725876)"/></svg>
