<svg height="90" viewBox="0 0 275 90" width="275" xmlns="http://www.w3.org/2000/svg"><g fill="none" stroke="#333" stroke-width="2.18141" transform="matrix(.458418825 0 0 .458418825 -151.8976495 194.5227725)"><path d="m394.05474-354.56341q3.6069 1.22079 6.99183 5.21612 3.44043 3.99534 6.88085 10.98717l11.3756 22.64021h-12.04149l-10.59872-21.25295q-4.10632-8.3236-7.99067-11.04265-3.82886-2.71904-10.48774-2.71904h-12.20796v35.01464h-11.20913v-82.84765h25.30377q14.20563 0 21.19746 5.93751 6.99183 5.93751 6.99183 17.9235 0 7.8242-3.66239 12.98483-3.6069 5.16064-10.54324 7.15831zm-28.0783-34.79269v29.41009h14.09464q8.10165 0 12.20796-3.71788 4.1618-3.77337 4.1618-11.04266 0-7.26928-4.1618-10.93167-4.10631-3.71788-12.20796-3.71788z"/><path d="m448.37121-387.5249-15.20445 41.2296h30.4644zm-6.32594-11.04266h12.70738l31.57422 82.84765h-11.65305l-7.54674-21.25295h-37.34526l-7.54673 21.25295h-11.81953z"/><path d="m486.36814-398.56756h16.70271l21.14196 56.37858 21.25295-56.37858h16.70271v82.84765h-10.93167v-72.74833l-21.36393 56.82249h-11.26462l-21.36393-56.82249v72.74833h-10.87618z"/><path d="m606.90594-387.5249-15.20445 41.2296h30.4644zm-6.32594-11.04266h12.70738l31.57422 82.84765h-11.65305l-7.54674-21.25295h-37.34526l-7.54674 21.25295h-11.81952z"/><path d="m629.55231-398.56756h70.08478v9.43343h-29.41008v73.41422h-11.26462v-73.41422h-29.41008z"/><path d="m719.98266-387.5249-15.20445 41.2296h30.4644zm-6.32594-11.04266h12.70738l31.57422 82.84765h-11.65305l-7.54674-21.25295h-37.34526l-7.54673 21.25295h-11.81953z"/><path d="m757.9795-398.56756h11.20913v35.01465l37.17878-35.01465h14.42759l-41.11863 38.62155 44.05964 44.2261h-14.76054l-39.78684-39.89783v39.89783h-11.20913z"/></g><g fill="none" stroke="#333" stroke-width="1.98113" transform="matrix(.5047629 0 0 .5047629 -181.19037075 -65.848115)"><path d="m387.4375 229.86459h10.97397l13.89063 37.04168 13.96355-37.04168h10.97396v54.43232h-7.18229v-47.7969l-14.03647 37.33335h-7.40104l-14.03647-37.33335v47.7969h-7.14584z"/><path d="m467.39067 248.16668q-5.39584 0-8.53126 4.22917-3.13542 4.19271-3.13542 11.52084 0 7.32813 3.09896 11.5573 3.13542 4.19271 8.56772 4.19271 5.35937 0 8.49479-4.22917 3.13542-4.22917 3.13542-11.52084 0-7.25521-3.13542-11.48438-3.13542-4.26563-8.49479-4.26563zm0-5.6875q8.75 0 13.74479 5.6875 4.9948 5.6875 4.9948 15.75001 0 10.02604-4.9948 15.75001-4.99479 5.6875-13.74479 5.6875-8.78647 0-13.78126-5.6875-4.95834-5.72397-4.95834-15.75001 0-10.06251 4.95834-15.75001 4.99479-5.6875 13.78126-5.6875z"/><path d="m526.56257 263.91669q0-7.40105-3.0625-11.59376-3.02605-4.22917-8.34897-4.22917-5.32291 0-8.38542 4.22917-3.02604 4.19271-3.02604 11.59376 0 7.40104 3.02604 11.63021 3.06251 4.19271 8.38542 4.19271 5.32292 0 8.34897-4.19271 3.0625-4.22917 3.0625-11.63021zm-22.82293-14.25522q2.11458-3.64583 5.32292-5.39583 3.24479-1.78646 7.72917-1.78646 7.4375 0 12.06771 5.90625 4.66667 5.90625 4.66667 15.53126 0 9.625-4.66667 15.53126-4.63021 5.90625-12.06771 5.90625-4.48438 0-7.72917-1.75-3.20834-1.78646-5.32292-5.4323v6.12501h-6.74479v-56.7292h6.74479z"/><path d="m544.64591 243.46355h6.70834v40.83336h-6.70834zm0-15.89584h6.70834v8.4948h-6.70834z"/><path d="m565.39071 227.56771h6.70834v56.7292h-6.70834z"/><path d="m621.06262 262.20315v3.28125h-30.84376q.4375 6.92708 4.15625 10.57292 3.75521 3.60938 10.42709 3.60938 3.86458 0 7.47396-.94792 3.64583-.94792 7.21875-2.84375v6.34375q-3.60937 1.53125-7.40104 2.33333-3.79167.80209-7.69271.80209-9.77084 0-15.4948-5.6875-5.68751-5.68751-5.68751-15.38543 0-10.02604 5.39584-15.89584 5.43229-5.90625 14.6198-5.90625 8.23959 0 13.01563 5.32292 4.8125 5.28646 4.8125 14.40105zm-6.70833-1.96875q-.0729-5.50522-3.09896-8.78647-2.98959-3.28125-7.94793-3.28125-5.61458 0-9.00521 3.17188-3.35417 3.17187-3.86458 8.93229z"/><path d="m688.72932 231.65105v7.18229q-4.19271-2.00521-7.91146-2.98958-3.71876-.98438-7.1823-.98438-6.01563 0-9.29688 2.33334-3.24479 2.33333-3.24479 6.63542 0 3.60937 2.15104 5.46875 2.1875 1.82292 8.23959 2.95313l4.44792.91145q8.23958 1.56771 12.14063 5.54167 3.9375 3.93751 3.9375 10.57293 0 7.91146-5.32292 11.99479-5.28646 4.08334-15.53126 4.08334-3.86458 0-8.23958-.875-4.33855-.875-9.00522-2.58854v-7.58334q4.48438 2.51562 8.78647 3.79167 4.30208 1.27604 8.45833 1.27604 6.3073 0 9.73438-2.47917 3.42709-2.47917 3.42709-7.07292 0-4.01042-2.47917-6.27084-2.44271-2.26041-8.0573-3.39062l-4.48437-.875q-8.23959-1.64063-11.92188-5.14063-3.6823-3.5-3.6823-9.73438 0-7.21875 5.06771-11.375 5.10417-4.15626 14.03647-4.15626 3.82813 0 7.80209.69271 3.97396.69271 8.13021 2.07813z"/><path d="m709.83869 231.8698v11.59375h13.81772v5.21355h-13.81772v22.16668q0 4.99479 1.34896 6.41666 1.38542 1.42188 5.57813 1.42188h6.89063v5.61459h-6.89063q-7.76563 0-10.71876-2.88021-2.95312-2.91667-2.95312-10.57292v-22.16668h-4.92188v-5.21355h4.92188v-11.59375z"/><path d="m731.78662 268.18232v-24.71877h6.70834v24.46356q0 5.79687 2.26042 8.71354 2.26042 2.88021 6.78125 2.88021 5.4323 0 8.56771-3.46354 3.17188-3.46354 3.17188-9.44271v-23.15106h6.70834v40.83336h-6.70834v-6.27084q-2.44271 3.71875-5.6875 5.54167-3.20834 1.78646-7.47396 1.78646-7.03647 0-10.6823-4.375-3.64584-4.37501-3.64584-12.79688z"/><path d="m806.67207 249.66147v-22.09376h6.70834v56.7292h-6.70834v-6.12501q-2.11458 3.64584-5.35937 5.4323-3.20834 1.75-7.72917 1.75-7.40105 0-12.06772-5.90625-4.63021-5.90626-4.63021-15.53126 0-9.62501 4.63021-15.53126 4.66667-5.90625 12.06772-5.90625 4.52083 0 7.72917 1.78646 3.24479 1.75 5.35937 5.39583zm-22.85938 14.25522q0 7.40104 3.02604 11.63021 3.0625 4.19271 8.38542 4.19271 5.32292 0 8.38542-4.19271 3.0625-4.22917 3.0625-11.63021 0-7.40105-3.0625-11.59376-3.0625-4.22917-8.38542-4.22917-5.32292 0-8.38542 4.22917-3.02604 4.19271-3.02604 11.59376z"/><path d="m827.19814 243.46355h6.70834v40.83336h-6.70834zm0-15.89584h6.70834v8.4948h-6.70834z"/><path d="m863.76585 248.16668q-5.39584 0-8.53125 4.22917-3.13542 4.19271-3.13542 11.52084 0 7.32813 3.09896 11.5573 3.13542 4.19271 8.56771 4.19271 5.35938 0 8.4948-4.22917 3.13541-4.22917 3.13541-11.52084 0-7.25521-3.13541-11.48438-3.13542-4.26563-8.4948-4.26563zm0-5.6875q8.75 0 13.7448 5.6875 4.99479 5.6875 4.99479 15.75001 0 10.02604-4.99479 15.75001-4.9948 5.6875-13.7448 5.6875-8.78646 0-13.78126-5.6875-4.95833-5.72397-4.95833-15.75001 0-10.06251 4.95833-15.75001 4.9948-5.6875 13.78126-5.6875z"/></g><g fill="#f2f2f2"><g stroke-width="2.32256" transform="matrix(.458418825 0 0 .458418825 -151.88606325 194.5226225)"><path d="m394.05474-354.56341q3.6069 1.22079 6.99183 5.21612 3.44043 3.99534 6.88085 10.98717l11.3756 22.64021h-12.04149l-10.59872-21.25295q-4.10632-8.3236-7.99067-11.04265-3.82886-2.71904-10.48774-2.71904h-12.20796v35.01464h-11.20913v-82.84765h25.30377q14.20563 0 21.19746 5.93751 6.99183 5.93751 6.99183 17.9235 0 7.8242-3.66239 12.98483-3.6069 5.16064-10.54324 7.15831zm-28.0783-34.79269v29.41009h14.09464q8.10165 0 12.20796-3.71788 4.1618-3.77337 4.1618-11.04266 0-7.26928-4.1618-10.93167-4.10631-3.71788-12.20796-3.71788z"/><path d="m448.37121-387.5249-15.20445 41.2296h30.4644zm-6.32594-11.04266h12.70738l31.57422 82.84765h-11.65305l-7.54674-21.25295h-37.34526l-7.54673 21.25295h-11.81953z"/><path d="m486.36814-398.56756h16.70271l21.14196 56.37858 21.25295-56.37858h16.70271v82.84765h-10.93167v-72.74833l-21.36393 56.82249h-11.26462l-21.36393-56.82249v72.74833h-10.87618z"/><path d="m606.90594-387.5249-15.20445 41.2296h30.4644zm-6.32594-11.04266h12.70738l31.57422 82.84765h-11.65305l-7.54674-21.25295h-37.34526l-7.54674 21.25295h-11.81952z"/><path d="m629.55231-398.56756h70.08478v9.43343h-29.41008v73.41422h-11.26462v-73.41422h-29.41008z"/><path d="m719.98266-387.5249-15.20445 41.2296h30.4644zm-6.32594-11.04266h12.70738l31.57422 82.84765h-11.65305l-7.54674-21.25295h-37.34526l-7.54673 21.25295h-11.81953z"/><path d="m757.9795-398.56756h11.20913v35.01465l37.17878-35.01465h14.42759l-41.11863 38.62155 44.05964 44.2261h-14.76054l-39.78684-39.89783v39.89783h-11.20913z"/></g><g transform="matrix(.5047629 0 0 .5047629 -181.1787845 -65.848265)"><path d="m387.4375 229.86459h10.97397l13.89063 37.04168 13.96355-37.04168h10.97396v54.43232h-7.18229v-47.7969l-14.03647 37.33335h-7.40104l-14.03647-37.33335v47.7969h-7.14584z"/><path d="m467.39067 248.16668q-5.39584 0-8.53126 4.22917-3.13542 4.19271-3.13542 11.52084 0 7.32813 3.09896 11.5573 3.13542 4.19271 8.56772 4.19271 5.35937 0 8.49479-4.22917 3.13542-4.22917 3.13542-11.52084 0-7.25521-3.13542-11.48438-3.13542-4.26563-8.49479-4.26563zm0-5.6875q8.75 0 13.74479 5.6875 4.9948 5.6875 4.9948 15.75001 0 10.02604-4.9948 15.75001-4.99479 5.6875-13.74479 5.6875-8.78647 0-13.78126-5.6875-4.95834-5.72397-4.95834-15.75001 0-10.06251 4.95834-15.75001 4.99479-5.6875 13.78126-5.6875z"/><path d="m526.56257 263.91669q0-7.40105-3.0625-11.59376-3.02605-4.22917-8.34897-4.22917-5.32291 0-8.38542 4.22917-3.02604 4.19271-3.02604 11.59376 0 7.40104 3.02604 11.63021 3.06251 4.19271 8.38542 4.19271 5.32292 0 8.34897-4.19271 3.0625-4.22917 3.0625-11.63021zm-22.82293-14.25522q2.11458-3.64583 5.32292-5.39583 3.24479-1.78646 7.72917-1.78646 7.4375 0 12.06771 5.90625 4.66667 5.90625 4.66667 15.53126 0 9.625-4.66667 15.53126-4.63021 5.90625-12.06771 5.90625-4.48438 0-7.72917-1.75-3.20834-1.78646-5.32292-5.4323v6.12501h-6.74479v-56.7292h6.74479z"/><path d="m544.64591 243.46355h6.70834v40.83336h-6.70834zm0-15.89584h6.70834v8.4948h-6.70834z"/><path d="m565.39071 227.56771h6.70834v56.7292h-6.70834z"/><path d="m621.06262 262.20315v3.28125h-30.84376q.4375 6.92708 4.15625 10.57292 3.75521 3.60938 10.42709 3.60938 3.86458 0 7.47396-.94792 3.64583-.94792 7.21875-2.84375v6.34375q-3.60937 1.53125-7.40104 2.33333-3.79167.80209-7.69271.80209-9.77084 0-15.4948-5.6875-5.68751-5.68751-5.68751-15.38543 0-10.02604 5.39584-15.89584 5.43229-5.90625 14.6198-5.90625 8.23959 0 13.01563 5.32292 4.8125 5.28646 4.8125 14.40105zm-6.70833-1.96875q-.0729-5.50522-3.09896-8.78647-2.98959-3.28125-7.94793-3.28125-5.61458 0-9.00521 3.17188-3.35417 3.17187-3.86458 8.93229z"/><path d="m688.72932 231.65105v7.18229q-4.19271-2.00521-7.91146-2.98958-3.71876-.98438-7.1823-.98438-6.01563 0-9.29688 2.33334-3.24479 2.33333-3.24479 6.63542 0 3.60937 2.15104 5.46875 2.1875 1.82292 8.23959 2.95313l4.44792.91145q8.23958 1.56771 12.14063 5.54167 3.9375 3.93751 3.9375 10.57293 0 7.91146-5.32292 11.99479-5.28646 4.08334-15.53126 4.08334-3.86458 0-8.23958-.875-4.33855-.875-9.00522-2.58854v-7.58334q4.48438 2.51562 8.78647 3.79167 4.30208 1.27604 8.45833 1.27604 6.3073 0 9.73438-2.47917 3.42709-2.47917 3.42709-7.07292 0-4.01042-2.47917-6.27084-2.44271-2.26041-8.0573-3.39062l-4.48437-.875q-8.23959-1.64063-11.92188-5.14063-3.6823-3.5-3.6823-9.73438 0-7.21875 5.06771-11.375 5.10417-4.15626 14.03647-4.15626 3.82813 0 7.80209.69271 3.97396.69271 8.13021 2.07813z"/><path d="m709.83869 231.8698v11.59375h13.81772v5.21355h-13.81772v22.16668q0 4.99479 1.34896 6.41666 1.38542 1.42188 5.57813 1.42188h6.89063v5.61459h-6.89063q-7.76563 0-10.71876-2.88021-2.95312-2.91667-2.95312-10.57292v-22.16668h-4.92188v-5.21355h4.92188v-11.59375z"/><path d="m731.78662 268.18232v-24.71877h6.70834v24.46356q0 5.79687 2.26042 8.71354 2.26042 2.88021 6.78125 2.88021 5.4323 0 8.56771-3.46354 3.17188-3.46354 3.17188-9.44271v-23.15106h6.70834v40.83336h-6.70834v-6.27084q-2.44271 3.71875-5.6875 5.54167-3.20834 1.78646-7.47396 1.78646-7.03647 0-10.6823-4.375-3.64584-4.37501-3.64584-12.79688z"/><path d="m806.67207 249.66147v-22.09376h6.70834v56.7292h-6.70834v-6.12501q-2.11458 3.64584-5.35937 5.4323-3.20834 1.75-7.72917 1.75-7.40105 0-12.06772-5.90625-4.63021-5.90626-4.63021-15.53126 0-9.62501 4.63021-15.53126 4.66667-5.90625 12.06772-5.90625 4.52083 0 7.72917 1.78646 3.24479 1.75 5.35937 5.39583zm-22.85938 14.25522q0 7.40104 3.02604 11.63021 3.0625 4.19271 8.38542 4.19271 5.32292 0 8.38542-4.19271 3.0625-4.22917 3.0625-11.63021 0-7.40105-3.0625-11.59376-3.0625-4.22917-8.38542-4.22917-5.32292 0-8.38542 4.22917-3.02604 4.19271-3.02604 11.59376z"/><path d="m827.19814 243.46355h6.70834v40.83336h-6.70834zm0-15.89584h6.70834v8.4948h-6.70834z"/><path d="m863.76585 248.16668q-5.39584 0-8.53125 4.22917-3.13542 4.19271-3.13542 11.52084 0 7.32813 3.09896 11.5573 3.13542 4.19271 8.56771 4.19271 5.35938 0 8.4948-4.22917 3.13541-4.22917 3.13541-11.52084 0-7.25521-3.13541-11.48438-3.13542-4.26563-8.4948-4.26563zm0-5.6875q8.75 0 13.7448 5.6875 4.99479 5.6875 4.99479 15.75001 0 10.02604-4.99479 15.75001-4.9948 5.6875-13.7448 5.6875-8.78646 0-13.78126-5.6875-4.95833-5.72397-4.95833-15.75001 0-10.06251 4.95833-15.75001 4.9948-5.6875 13.78126-5.6875z"/></g></g></svg>
