<?xml version="1.0" encoding="UTF-8" standalone="no"?>
<!-- Created with Inkscape (http://www.inkscape.org/) -->

<svg
   width="1024"
   height="1024"
   viewBox="0 0 270.93333 270.93333"
   version="1.1"
   id="svg718"
   inkscape:version="1.2.2 (b0a8486541, 2022-12-01)"
   sodipodi:docname="icon.svg"
   inkscape:export-filename="icon.svg"
   inkscape:export-xdpi="96"
   inkscape:export-ydpi="96"
   xmlns:inkscape="http://www.inkscape.org/namespaces/inkscape"
   xmlns:sodipodi="http://sodipodi.sourceforge.net/DTD/sodipodi-0.dtd"
   xmlns="http://www.w3.org/2000/svg"
   xmlns:svg="http://www.w3.org/2000/svg">
  <sodipodi:namedview
     id="namedview720"
     pagecolor="#ffffff"
     bordercolor="#666666"
     borderopacity="1.0"
     inkscape:showpageshadow="2"
     inkscape:pageopacity="0.0"
     inkscape:pagecheckerboard="0"
     inkscape:deskcolor="#d1d1d1"
     inkscape:document-units="px"
     showgrid="false"
     inkscape:zoom="0.59838855"
     inkscape:cx="399.40604"
     inkscape:cy="506.35996"
     inkscape:window-width="1920"
     inkscape:window-height="1011"
     inkscape:window-x="0"
     inkscape:window-y="32"
     inkscape:window-maximized="1"
     inkscape:current-layer="layer1" />
  <defs
     id="defs715">
    <inkscape:path-effect
       effect="fillet_chamfer"
       id="path-effect4689"
       is_visible="true"
       lpeversion="1"
       nodesatellites_param="F,0,0,1,0,50,0,1 @ F,0,0,1,0,50,0,1 @ F,0,0,1,0,50,0,1 @ F,0,0,1,0,50,0,1"
       unit="px"
       method="auto"
       mode="F"
       radius="50"
       chamfer_steps="1"
       flexible="false"
       use_knot_distance="true"
       apply_no_radius="true"
       apply_with_radius="true"
       only_selected="false"
       hide_knots="false" />
    <clipPath
       clipPathUnits="userSpaceOnUse"
       id="clipPath703">
      <g
         id="g707">
        <path
           d="M 0,566.93 H 566.93 V 0 H 0 Z"
           id="path705" />
      </g>
    </clipPath>
    <clipPath
       clipPathUnits="userSpaceOnUse"
       id="clipPath673">
      <g
         id="g677"
         transform="translate(-337.5967,-133.0537)">
        <path
           d="M 0,566.93 H 566.93 V 0 H 0 Z"
           id="path675" />
      </g>
    </clipPath>
    <clipPath
       clipPathUnits="userSpaceOnUse"
       id="clipPath667">
      <g
         id="g671"
         transform="translate(-286.6807,-98.1279)">
        <path
           d="M 0,566.93 H 566.93 V 0 H 0 Z"
           id="path669" />
      </g>
    </clipPath>
    <clipPath
       clipPathUnits="userSpaceOnUse"
       id="clipPath661">
      <g
         id="g665"
         transform="translate(-291.4355,-79.793)">
        <path
           d="M 0,566.93 H 566.93 V 0 H 0 Z"
           id="path663" />
      </g>
    </clipPath>
    <clipPath
       clipPathUnits="userSpaceOnUse"
       id="clipPath655">
      <g
         id="g659"
         transform="translate(-288.0898,-89.2607)">
        <path
           d="M 0,566.93 H 566.93 V 0 H 0 Z"
           id="path657" />
      </g>
    </clipPath>
  </defs>
  <g
     id="g6213">
    <path
       style="display:inline;fill:#12d17e;fill-opacity:1;stroke-width:0.352999;stroke-dasharray:none;paint-order:normal"
       id="rect3880"
       width="270.93332"
       height="270.93332"
       x="36.905148"
       y="64.725883"
       inkscape:path-effect="#path-effect4689"
       d="M 86.905148,64.725883 H 257.83847 a 50,50 45 0 1 50,49.999997 V 285.6592 a 50,50 135 0 1 -50,50 H 86.905148 a 50,50 45 0 1 -50,-50 V 114.72588 a 50,50 135 0 1 50,-49.999997 z"
       sodipodi:type="rect"
       inkscape:export-filename="icon.svg"
       inkscape:export-xdpi="96"
       inkscape:export-ydpi="96"
       transform="translate(-36.905141,-64.725877)"
       inkscape:label="background" />
  </g>
  <g
     inkscape:label="Layer 1"
     inkscape:groupmode="layer"
     id="layer1"
     transform="translate(-36.90514,-64.725876)">
    <g
       id="g4699"
       transform="matrix(6.7793483,0,0,6.7793483,-207.28984,-154.0735)"
       inkscape:export-filename="face.png"
       inkscape:export-xdpi="68.798172"
       inkscape:export-ydpi="68.798172"
       style="display:none"
       inkscape:label="imported_face">
      <g
         id="g180"
         transform="matrix(0.35277777,0,0,-0.35277777,70.936987,43.983413)"
         clip-path="url(#clipPath673)">
        <path
           d="m 0,0 c -1.153,-0.115 -2.135,-0.442 -3.061,-0.91 -3.127,-1.583 -6.08,-3.428 -8.655,-5.839 -3.28,-3.07 -6.28,-6.385 -8.98,-9.977 -3.038,-4.036 -7.164,-6.245 -12.078,-7.093 -0.637,-0.11 -1.285,-0.188 -1.93,-0.208 -0.451,-0.015 -0.752,0.317 -0.792,0.725 -0.036,0.398 0.22,0.742 0.654,0.863 0.108,0.029 0.224,0.025 0.334,0.043 0.862,0.136 1.734,0.231 2.582,0.421 3.022,0.671 5.792,1.872 8.004,4.108 0.931,0.939 1.81,1.938 2.611,2.989 2.208,2.899 4.67,5.564 7.248,8.13 3.336,3.319 7.152,5.916 11.456,7.802 0.065,0.029 0.114,0.09 0.247,0.197 -0.193,0.025 -0.29,0.054 -0.39,0.051 -1.351,-0.047 -2.7,-0.132 -4.051,-0.134 -1.602,-0.002 -3.207,0.123 -4.808,0.092 -1.262,-0.024 -2.537,-0.106 -3.775,-0.331 -3.03,-0.554 -5.64,-2.05 -8.068,-3.877 -2.372,-1.783 -4.446,-3.889 -6.489,-6.033 -2.407,-2.532 -4.833,-5.046 -7.3,-7.521 -1.614,-1.618 -3.381,-3.056 -5.492,-4.023 -1.785,-0.818 -3.666,-1.257 -5.577,-1.624 -0.787,-0.152 -1.571,-0.315 -2.354,-0.472 0.198,-0.898 0.837,-2.123 1.615,-3.001 1.463,-1.649 3.102,-3.111 4.933,-4.347 4.79,-3.223 10.121,-4.562 15.838,-4.482 2.285,0.033 4.549,0.294 6.728,1.055 3.385,1.184 6.449,2.956 9.252,5.163 5.84,4.598 9.711,10.502 11.525,17.726 0.732,2.915 0.886,5.897 0.935,8.885 C 0.172,-1.102 0.062,-0.58 0,0 m -28.171,-36.085 c -1.686,-0.132 -3.357,0.045 -5.032,0.246 -1.379,0.163 -2.723,0.434 -4.036,0.847 -1.04,0.33 -2.084,0.679 -3.074,1.132 -1.376,0.63 -2.739,1.306 -4.043,2.071 -3.379,1.978 -5.845,4.807 -7.498,8.352 -0.116,0.251 -0.199,0.527 -0.255,0.801 -0.128,0.626 0.22,1.18 0.849,1.323 0.713,0.161 1.435,0.286 2.152,0.43 2.645,0.529 5.144,1.459 7.406,2.934 0.956,0.625 1.83,1.396 2.671,2.178 1.342,1.241 2.645,2.526 3.924,3.831 1.889,1.928 3.728,3.912 5.619,5.842 2.051,2.095 4.174,4.132 6.637,5.727 2.439,1.576 5.053,2.816 7.987,3.231 0.923,0.129 1.834,0.191 2.768,0.149 2.582,-0.116 5.168,-0.252 7.75,-0.201 1.389,0.028 2.799,0.318 4.146,0.685 C 0.458,3.674 1.014,4.275 1.575,4.735 2.01,5.091 2.367,5.537 2.784,5.917 3.426,6.5 4.297,6.5 4.829,5.941 5.415,5.327 5.406,4.447 4.753,3.828 4.057,3.171 3.354,2.513 2.591,1.942 1.854,1.392 1.58,0.744 1.659,-0.164 1.831,-2.153 1.853,-4.15 1.673,-6.143 c -0.184,-2.05 -0.647,-4.038 -1.179,-6.024 -0.466,-1.749 -1.123,-3.406 -1.855,-5.05 -1,-2.249 -2.309,-4.311 -3.803,-6.258 -1.723,-2.242 -3.692,-4.245 -5.894,-6.013 -1.272,-1.024 -2.63,-1.919 -4.056,-2.728 -1.595,-0.903 -3.209,-1.738 -4.9,-2.448 -1.972,-0.826 -4.032,-1.189 -6.133,-1.374 -0.67,-0.06 -1.349,-0.034 -2.024,-0.047"
           style="fill:#0e0737;fill-opacity:1;fill-rule:evenodd;stroke:none"
           id="path182" />
      </g>
      <g
         id="g184"
         transform="matrix(0.35277777,0,0,-0.35277777,52.974959,56.304463)"
         clip-path="url(#clipPath667)">
        <path
           d="m 0,0 c -1.355,0.043 -2.563,0.093 -3.769,0.11 -2.68,0.037 -5.347,-0.163 -8.008,-0.453 -2.165,-0.235 -4.33,-0.28 -6.474,0.179 -3.417,0.731 -6.347,2.408 -8.979,4.654 -0.107,0.092 -0.21,0.193 -0.292,0.304 -0.252,0.344 -0.236,0.702 0.032,0.999 0.275,0.303 0.626,0.371 0.99,0.149 0.214,-0.129 0.398,-0.31 0.593,-0.472 4.011,-3.327 8.537,-4.882 13.789,-4.214 2.764,0.352 5.548,0.583 8.344,0.474 1.015,-0.039 2.028,-0.039 3.043,-0.045 0.169,-0.001 0.338,0.062 0.615,0.117 -0.947,1.057 -1.817,2.013 -2.667,2.984 -0.852,0.974 -1.651,1.993 -2.529,2.94 -1.641,1.77 -3.744,2.804 -6.037,3.367 -1.712,0.42 -3.483,0.676 -5.243,0.81 -3.167,0.242 -6.344,0.378 -9.516,0.486 -3.255,0.111 -6.189,1.049 -8.739,3.111 -0.586,0.474 -1.195,0.915 -1.897,1.449 -0.228,-0.717 -0.507,-1.34 -0.622,-1.99 -0.437,-2.443 -0.28,-4.876 0.307,-7.28 0.824,-3.385 2.514,-6.303 4.847,-8.861 1.24,-1.357 2.629,-2.527 4.275,-3.395 1.655,-0.872 3.399,-1.471 5.192,-1.96 2.941,-0.804 5.928,-0.979 8.943,-0.628 3.875,0.451 7.412,1.805 10.622,4.027 C -1.974,-2.303 -0.899,-1.351 0,0 M 4.792,-0.97 C 4.124,-0.883 3.37,-0.799 2.62,-0.682 2.069,-0.597 1.635,-0.759 1.26,-1.166 c -1.4,-1.519 -2.994,-2.829 -4.75,-3.891 -1.36,-0.824 -2.853,-1.438 -4.313,-2.091 -1.76,-0.787 -3.627,-1.19 -5.532,-1.427 -1.707,-0.214 -3.422,-0.294 -5.131,-0.139 -1.311,0.119 -2.618,0.329 -3.911,0.579 -1.572,0.307 -3.082,0.854 -4.545,1.504 -0.923,0.41 -1.854,0.83 -2.708,1.364 -0.826,0.519 -1.598,1.144 -2.326,1.798 -1.92,1.724 -3.421,3.787 -4.672,6.03 -0.411,0.732 -0.732,1.519 -1.034,2.305 -0.677,1.759 -1.119,3.577 -1.286,5.459 -0.216,2.406 0.156,4.712 1.175,6.908 0.105,0.228 0.22,0.457 0.381,0.648 0.375,0.444 0.816,0.507 1.248,0.13 1.415,-1.229 2.998,-2.2 4.687,-2.978 0.884,-0.407 1.848,-0.723 2.808,-0.86 1.806,-0.256 3.633,-0.384 5.457,-0.509 2.38,-0.163 4.766,-0.289 7.153,-0.395 2.035,-0.09 4.037,-0.394 5.966,-1.028 1.959,-0.643 3.815,-1.523 5.35,-2.944 0.412,-0.38 0.77,-0.822 1.129,-1.254 C -2.43,6.638 -1.337,5.165 -0.095,3.833 0.679,3.004 1.663,2.364 2.582,1.678 2.786,1.523 3.111,1.508 3.387,1.475 3.918,1.407 4.451,1.37 4.984,1.327 5.757,1.265 6.266,0.774 6.226,0.126 6.187,-0.542 5.632,-0.993 4.792,-0.97"
           style="fill:#0e0737;fill-opacity:1;fill-rule:evenodd;stroke:none"
           id="path186" />
      </g>
      <g
         id="g188"
         transform="matrix(0.35277777,0,0,-0.35277777,54.652349,62.772603)"
         clip-path="url(#clipPath661)">
        <path
           d="m 0,0 c -2.442,0.082 -5.052,0.676 -7.567,1.715 -0.156,0.064 -0.309,0.14 -0.45,0.23 -0.532,0.337 -0.692,0.88 -0.409,1.369 0.278,0.485 0.696,0.599 1.306,0.304 1.534,-0.739 3.174,-1.124 4.824,-1.453 3.217,-0.643 6.21,0.023 8.959,1.735 2.704,1.686 4.929,3.899 6.732,6.526 0.266,0.393 0.469,0.831 0.687,1.255 0.314,0.606 0.778,0.836 1.284,0.612 0.504,-0.221 0.723,-0.743 0.479,-1.345 C 15.62,10.406 15.363,9.862 15.026,9.385 13.082,6.628 10.741,4.271 7.897,2.421 5.578,0.913 3.043,0.126 0,0"
           style="fill:#0e0737;fill-opacity:1;fill-rule:evenodd;stroke:none"
           id="path190" />
      </g>
      <g
         id="g192"
         transform="matrix(0.35277777,0,0,-0.35277777,53.472059,59.432613)"
         clip-path="url(#clipPath655)">
        <path
           d="m 0,0 c -0.294,0.067 -0.894,0.124 -1.422,0.35 -0.354,0.153 -0.652,0.512 -0.897,0.837 -0.249,0.334 -0.139,0.709 0.159,0.985 0.304,0.28 0.722,0.349 0.999,0.068 0.766,-0.777 1.651,-0.596 2.515,-0.352 0.669,0.187 1.3,0.515 1.945,0.788 0.18,0.078 0.34,0.2 0.52,0.274 C 4.271,3.139 4.711,3.002 4.913,2.629 5.118,2.253 5.032,1.771 4.626,1.521 3.297,0.701 1.885,0.1 0,0"
           style="fill:#0e0737;fill-opacity:1;fill-rule:evenodd;stroke:none"
           id="path194" />
      </g>
    </g>
    <g
       id="traced_face">
      <path
         style="fill:#000000;stroke-width:0.402987"
         d="m 156.93753,277.56373 c -6.07699,-0.87599 -14.40608,-3.5853 -16.19833,-5.26905 -1.08782,-1.02195 -1.16685,-1.82451 -0.30134,-3.0602 0.8331,-1.18941 1.97842,-1.13287 5.51569,0.27228 7.78725,3.09343 17.45336,4.08889 23.91587,2.46295 10.72234,-2.69767 21.58181,-11.81059 29.38729,-24.66086 1.38849,-2.28587 4.62892,-1.75737 4.62892,0.75495 0,3.98539 -9.04521,14.80572 -17.94354,21.46497 -8.88292,6.6477 -19.06348,9.46796 -29.00456,8.03496 z m -5.62828,-24.72239 c -2.03756,-0.5515 -4.24494,-2.44992 -4.24494,-3.65078 0,-0.7676 1.43497,-2.21008 2.19854,-2.21008 0.32263,0 1.27469,0.46916 2.11569,1.04258 1.32796,0.90546 1.79416,1.00827 3.54405,0.78161 1.10822,-0.14354 3.68216,-0.99067 5.71987,-1.88249 2.03771,-0.89182 4.02796,-1.5593 4.42275,-1.48326 1.01417,0.19531 1.797,1.90134 1.29924,2.83142 -0.62676,1.17111 -3.13551,2.61308 -6.40452,3.68116 -4.0263,1.31553 -6.23757,1.54298 -8.65068,0.88984 z m -52.804984,-0.22617 c -8.578744,-1.29085 -14.053364,-2.86194 -20.820924,-5.97514 -6.64002,-3.05453 -11.4763,-6.82959 -16.4272,-12.82259 -5.95303,-7.20605 -9.57519,-14.16468 -11.81747,-22.70289 -1.076403,-4.09867 -1.222331,-5.3331 -1.262504,-10.67919 -0.05109,-6.79574 0.470434,-9.52398 2.789264,-14.59218 1.8743,-4.09662 2.39306,-4.15902 6.83864,-0.82256 3.84307,2.88428 9.20168,5.82184 12.90555,7.07478 4.02481,1.3615 9.77291,1.94263 30.615558,3.09521 15.24926,0.84326 20.99863,1.97158 28.54058,5.60111 4.69051,2.25729 7.57061,4.77305 12.97125,11.33029 6.65106,8.07547 7.56436,9.04221 11.00115,11.6449 2.94882,2.23314 3.43063,2.4081 7.93523,2.88129 2.71631,0.28535 4.23136,1.32335 4.23136,2.89903 0,2.53008 -1.84469,3.46677 -5.72289,2.90595 -5.38379,-0.77851 -5.46779,-0.7526 -9.23356,2.84806 -4.82099,4.60959 -9.38875,7.73481 -15.96638,10.924 -6.61825,3.2089 -11.30049,4.86199 -16.42826,5.80006 -4.22146,0.77228 -16.54045,1.13291 -20.149394,0.58987 z m 13.277274,-3.63578 c 11.11656,-1.05415 20.7158,-4.48107 29.48751,-10.52697 2.90556,-2.00267 8.21319,-7.14363 8.21319,-7.95527 0,-0.56051 -17.67383,-0.58436 -23.77629,-0.0321 -13.37702,1.21061 -14.59822,1.26331 -18.79793,0.81113 -5.69547,-0.61322 -10.284808,-1.9948 -16.060538,-4.83488 -4.86271,-2.39112 -11.33892,-6.91178 -12.83115,-8.95666 -0.74919,-1.02665 -0.75548,-1.14068 -0.11671,-2.11568 0.37138,-0.5668 1.0329,-1.03054 1.47003,-1.03054 0.43715,0 2.41337,1.22884 4.3916,2.73076 4.79316,3.63902 8.8031,5.88495 13.51243,7.56813 7.211398,2.57746 13.866338,3.13634 23.193368,1.94783 2.90378,-0.37001 10.09294,-0.75257 16.97361,-0.90321 l 11.93625,-0.26134 -7.30189,-8.3386 c -9.32785,-10.65222 -11.58613,-12.44218 -18.70737,-14.82802 -6.82185,-2.28553 -14.77301,-3.24078 -33.527708,-4.02803 -11.93926,-0.50114 -15.22707,-0.90957 -19.93949,-2.47693 -4.4011,-1.46381 -6.84715,-2.83292 -12.0114,-6.7231 -2.17894,-1.64137 -4.01743,-2.91924 -4.08553,-2.83974 -0.0682,0.0795 -0.41774,1.05132 -0.77694,2.15954 -1.06151,3.27492 -1.5788,8.16281 -1.32353,12.50581 0.75906,12.91425 5.96707,24.20908 15.64995,33.94087 5.34977,5.37676 10.43251,8.36316 19.02351,11.17735 9.00641,2.95028 16.575238,3.84694 25.404978,3.00963 z m 85.25329,-16.28268 c -8.44367,-1.09095 -14.93755,-3.07851 -23.17181,-7.09215 -7.39793,-3.60598 -12.34511,-6.92082 -16.42409,-11.00488 -5.06764,-5.07396 -10.17452,-13.08353 -10.65562,-16.71213 -0.30468,-2.29796 0.79004,-3.00841 6.32582,-4.10542 8.98251,-1.78002 16.96905,-5.04846 22.76884,-9.31802 1.5515,-1.14214 10.98142,-10.27273 20.95538,-20.2902 18.96204,-19.04474 22.29139,-21.9794 29.82636,-26.29047 4.0913,-2.34079 8.45371,-4.17516 13.01203,-5.47148 2.96298,-0.84265 3.84389,-0.88236 19.62474,-0.88489 14.7616,-0.002 16.86611,-0.0836 19.74641,-0.76118 4.2203,-0.99298 4.94292,-1.39332 8.38325,-4.64458 3.24196,-3.06381 4.18009,-3.66413 5.72585,-3.66413 1.45149,0 3.42152,2.01405 3.41877,3.49515 -0.003,1.65129 -0.95691,2.87417 -5.11473,6.55737 -2.03852,1.80584 -3.79836,3.59229 -3.91076,3.96993 -0.11243,0.37765 -0.19457,4.76688 -0.18265,9.75386 0.0178,7.42629 -0.12747,9.90592 -0.80279,13.70159 -3.5399,19.89672 -11.36107,35.37482 -24.64393,48.77032 -6.64545,6.70182 -12.16857,10.86939 -20.48583,15.45799 -7.89959,4.35816 -13.41361,6.56497 -19.90637,7.96692 -4.90677,1.05948 -18.27871,1.36875 -24.48887,0.5664 z m 23.37331,-4.86142 c 14.75309,-3.23668 32.05374,-14.2709 43.14773,-27.51925 10.24581,-12.23548 17.03958,-27.78111 18.88014,-43.20189 0.64135,-5.3735 0.97594,-13.34287 0.66476,-15.83354 l -0.28362,-2.26993 -1.28265,0.23678 c -4.3324,0.79982 -11.26915,4.20576 -18.88665,9.27332 -9.3536,6.22252 -20.2017,16.98908 -31.91268,31.67278 -6.34629,7.95721 -10.63661,11.92345 -16.37186,15.13513 -5.24008,2.93441 -12.45111,5.2466 -19.13766,6.1364 -3.1458,0.41863 -3.55163,0.39527 -4.25935,-0.24521 -1.05505,-0.9548 -0.99579,-2.44805 0.1244,-3.13702 0.49869,-0.30669 2.89288,-0.86947 5.32043,-1.25059 5.40558,-0.84871 9.88781,-2.21705 14.07938,-4.2982 6.4705,-3.21264 10.31961,-6.6993 17.93431,-16.24544 8.47718,-10.62738 18.99711,-21.55616 25.996,-27.00629 5.23807,-4.07894 10.52964,-7.45417 16.36075,-10.4357 2.99219,-1.52994 5.49508,-2.83044 5.56198,-2.89001 0.067,-0.0596 -6.82419,-0.0684 -15.31355,-0.0197 -12.23069,0.0702 -16.06265,0.22033 -18.45758,0.72311 -6.41613,1.34698 -11.10669,3.43123 -17.77566,7.89861 -6.08966,4.07932 -9.60666,7.20982 -19.28047,17.16166 -16.2231,16.68935 -24.39742,24.67745 -27.42196,26.79725 -6.01999,4.2192 -11.58913,6.36416 -21.66061,8.34259 -4.14763,0.81478 -5.74258,1.28629 -5.74258,1.69771 0,1.41101 2.74037,5.90474 5.28471,8.66603 10.92064,11.85172 25.70574,19.11776 43.47684,21.3664 3.34437,0.42318 17.99036,-0.10457 20.95538,-0.75501 z"
         id="path6180"
         inkscape:label="traced_face" />
    </g>
  </g>
</svg>
